<svg width="224" height="60" viewBox="0 0 224 60" fill="none" xmlns="http://www.w3.org/2000/svg">
<path d="M84.6231 23.5191C84.2846 23.5191 83.9968 23.807 83.9968 24.1456V33.4161C83.9968 37.463 81.8131 39.5287 78.419 39.5287C74.8726 39.5287 72.7397 37.2513 72.7397 33.2976V24.1372C72.7397 23.7985 72.4519 23.5107 72.1133 23.5107C71.7748 23.5107 71.487 23.7985 71.487 24.1372V33.4077C71.487 38.1064 74.3394 40.6463 78.3598 40.6463C82.431 40.6463 85.2325 38.081 85.2325 33.2637V24.1372C85.2495 23.807 84.9617 23.5191 84.6231 23.5191ZM94.2467 27.8792C92.0207 27.8792 90.6495 29.0052 89.837 30.4445V28.675C89.837 28.3195 89.5746 28.0739 89.236 28.0739C88.8975 28.0739 88.6605 28.3364 88.6605 28.675V39.8928C88.6605 40.2484 88.9229 40.4939 89.2614 40.4939C89.6 40.4939 89.837 40.2568 89.837 39.8928V33.323C89.837 30.7831 91.6821 28.9629 94.0774 28.9629C96.5489 28.9629 97.9624 30.6138 97.9624 33.1283V39.8843C97.9624 40.2399 98.2248 40.4854 98.5634 40.4854C98.9019 40.4854 99.1389 40.2484 99.1389 39.8843V32.9082C99.1304 29.9873 97.3361 27.8792 94.2467 27.8792ZM102.829 23.2567C102.423 23.2567 102.11 23.5699 102.11 23.9763V24.3827C102.11 24.7891 102.423 25.1023 102.829 25.1023C103.235 25.1023 103.574 24.7891 103.574 24.3827V23.9763C103.574 23.5615 103.235 23.2567 102.829 23.2567ZM102.829 28.0739C102.491 28.0739 102.254 28.3364 102.254 28.675V39.8928C102.254 40.2484 102.516 40.4939 102.855 40.4939C103.193 40.4939 103.43 40.2568 103.43 39.8928V28.6666C103.43 28.311 103.168 28.0739 102.829 28.0739ZM112.216 29.2423C112.504 29.2423 112.766 29.0052 112.766 28.7174C112.766 28.4295 112.504 28.1671 112.216 28.1671H108.382V24.7637C108.382 24.425 108.119 24.1626 107.781 24.1626C107.442 24.1626 107.205 24.425 107.205 24.7637V28.1671H105.885C105.597 28.1671 105.335 28.4041 105.335 28.692C105.335 28.9798 105.597 29.2423 105.885 29.2423H107.205V37.2513C107.205 39.5795 108.737 40.6039 110.633 40.6039C111.327 40.6039 111.877 40.46 112.36 40.2907C112.597 40.1976 112.741 40.0282 112.741 39.7912C112.741 39.5033 112.478 39.2663 112.216 39.2663C112.047 39.2663 111.666 39.5033 110.828 39.5033C109.414 39.5033 108.382 38.8768 108.382 37.1328V29.2507H112.216V29.2423ZM118.995 27.8792C115.686 27.8792 113.198 30.7069 113.198 34.2543V34.3051C113.198 38.1149 115.974 40.6801 119.19 40.6801C121.391 40.6801 122.762 39.8928 123.955 38.6906C124.099 38.5466 124.15 38.4027 124.15 38.2842C124.15 37.9709 123.888 37.7339 123.575 37.7339C123.405 37.7339 123.287 37.8016 123.194 37.9032C122.212 38.8599 120.993 39.5795 119.241 39.5795C116.846 39.5795 114.662 37.8101 114.45 34.7623H114.459C114.459 34.7623 114.442 33.958 114.459 33.6616C114.459 33.6616 114.467 33.56 114.467 33.5431C114.467 33.56 114.467 33.5939 114.459 33.6616C114.696 30.9779 116.549 28.9629 118.953 28.9629C121.755 28.9629 123.168 31.2403 123.338 33.704H119.393V33.7124C119.106 33.7124 118.869 33.9495 118.869 34.2373C118.869 34.5252 119.106 34.7623 119.393 34.7623H124.032C124.319 34.7623 124.607 34.4998 124.607 34.2119C124.599 30.7069 122.423 27.8792 118.995 27.8792ZM137.743 22.7995C137.405 22.7995 137.168 23.0366 137.168 23.4006V30.8085C136.16 29.2761 134.578 27.8877 132.14 27.8877C129.195 27.8877 126.198 30.309 126.198 34.2881V34.3389C126.198 38.3181 129.195 40.6886 132.14 40.6886C134.561 40.6886 136.118 39.2747 137.168 37.6662V39.8928C137.168 40.2484 137.43 40.4939 137.769 40.4939C138.107 40.4939 138.344 40.2568 138.344 39.8928V23.4006C138.344 23.0366 138.082 22.7995 137.743 22.7995ZM137.235 34.2966C137.235 37.4122 134.789 39.5457 132.25 39.5457C129.686 39.5457 127.459 37.4884 127.459 34.2712V34.2204C127.459 30.9355 129.592 28.9968 132.25 28.9968C134.789 28.9968 137.235 31.1049 137.235 34.2458V34.2966ZM157.439 33.3399C157.456 33.2976 157.464 33.2553 157.473 33.2045C160.241 32.7896 162.263 31.198 162.263 28.4295V28.3787C162.263 27.1765 161.781 26.0505 160.994 25.2632C159.987 24.2557 158.336 23.6123 156.271 23.6123H149.847C149.508 23.6123 149.22 23.9001 149.22 24.2388V39.8589C149.22 40.1976 149.508 40.4854 149.847 40.4854C150.185 40.4854 150.473 40.1976 150.473 39.8589V24.7637H156.195C159.233 24.7637 161.011 26.1775 161.011 28.4295V28.4803C161.011 30.7323 159.208 32.1123 156.694 32.2901C156.686 32.2901 156.686 32.2901 156.677 32.2901C156.237 32.2901 155.882 32.6457 155.882 33.0859C155.882 33.2891 155.958 33.4669 156.085 33.6108H156.076L161.095 40.1468C161.239 40.3415 161.409 40.4854 161.646 40.4854C161.984 40.4854 162.289 40.1722 162.289 39.842C162.289 39.6981 162.221 39.5541 162.094 39.4102L157.439 33.3399ZM170.211 27.8792C166.572 27.8792 163.914 30.8509 163.914 34.2797V34.3305C163.914 37.7593 166.546 40.6801 170.169 40.6801C173.808 40.6801 176.466 37.7085 176.466 34.2797V34.2289C176.466 30.8001 173.834 27.8792 170.211 27.8792ZM175.197 34.322C175.197 37.2005 173.114 39.5711 170.211 39.5711C167.384 39.5711 165.184 37.2259 165.184 34.2712V34.2204C165.184 31.3419 167.266 28.9714 170.169 28.9714C172.996 28.9714 175.197 31.3165 175.197 34.2712V34.322ZM185.116 27.8792C182.696 27.8792 181.138 29.2931 180.089 30.9017V23.4006C180.089 23.045 179.826 22.7995 179.488 22.7995C179.149 22.7995 178.912 23.0366 178.912 23.4006V39.8843C178.912 40.223 179.175 40.4854 179.513 40.4854C179.852 40.4854 180.089 40.223 180.089 39.8843V37.7508C181.096 39.2832 182.679 40.6717 185.116 40.6717C188.062 40.6717 191.058 38.2503 191.058 34.2712V34.2204C191.058 30.2498 188.062 27.8792 185.116 27.8792ZM189.788 34.322C189.788 37.6069 187.656 39.5457 184.998 39.5457C182.459 39.5457 180.013 37.4376 180.013 34.2966V34.2458C180.013 31.1302 182.459 28.9968 184.998 28.9968C187.562 28.9968 189.788 31.0541 189.788 34.2712V34.322ZM199.048 27.8792C195.409 27.8792 192.751 30.8509 192.751 34.2797V34.3305C192.751 37.7593 195.383 40.6801 199.006 40.6801C202.645 40.6801 205.303 37.7085 205.303 34.2797V34.2289C205.303 30.8001 202.671 27.8792 199.048 27.8792ZM204.033 34.322C204.033 37.2005 201.951 39.5711 199.048 39.5711C196.221 39.5711 194.02 37.2259 194.02 34.2712V34.2204C194.02 31.3419 196.103 28.9714 199.006 28.9714C201.833 28.9714 204.033 31.3165 204.033 34.2712V34.322ZM212.98 29.2423C213.268 29.2423 213.53 29.0052 213.53 28.7174C213.53 28.4295 213.268 28.1671 212.98 28.1671H209.146V24.7637C209.146 24.425 208.883 24.1626 208.545 24.1626C208.206 24.1626 207.969 24.425 207.969 24.7637V28.1671H206.649C206.361 28.1671 206.099 28.4041 206.099 28.692C206.099 28.9798 206.361 29.2423 206.649 29.2423H207.969V37.2513C207.969 39.5795 209.501 40.6039 211.397 40.6039C212.091 40.6039 212.641 40.46 213.124 40.2907C213.361 40.1976 213.505 40.0282 213.505 39.7912C213.505 39.5033 213.242 39.2663 212.98 39.2663C212.811 39.2663 212.43 39.5033 211.592 39.5033C210.178 39.5033 209.146 38.8768 209.146 37.1328V29.2507H212.98V29.2423ZM219.98 33.5854C218.228 33.0859 216.577 32.578 216.577 31.2149V31.1641C216.577 29.945 217.677 29.0306 219.353 29.0306C220.53 29.0306 221.698 29.4116 222.756 30.0381C222.823 30.0889 222.95 30.1312 223.094 30.1312C223.407 30.1312 223.67 29.8688 223.67 29.5555C223.67 29.2931 223.501 29.1238 223.357 29.0306C222.18 28.3618 220.724 27.93 219.404 27.93C217.034 27.93 215.384 29.3439 215.384 31.308V31.3588C215.384 33.5431 217.584 34.1358 219.573 34.7115C221.275 35.194 222.807 35.7189 222.807 37.1582V37.209C222.807 38.6228 221.512 39.5372 219.861 39.5372C218.397 39.5372 217.059 39.0546 215.79 38.1487C215.697 38.081 215.553 38.0302 215.409 38.0302C215.096 38.0302 214.833 38.2927 214.833 38.6059C214.833 38.8006 214.952 38.9869 215.045 39.0631C216.289 39.9944 218.134 40.6463 219.785 40.6463C222.129 40.6463 224 39.2578 224 37.0735V37.0227C224.008 34.8554 221.943 34.1358 219.98 33.5854Z" fill="#101010"/>
<path fill-rule="evenodd" clip-rule="evenodd" d="M29.988 0C46.552 0 59.9844 13.4274 59.9844 29.9958C59.9844 46.5641 46.552 60 29.988 60C13.4239 60 0 46.5641 0 29.9958C0 13.4274 13.4239 0 29.988 0Z" fill="#101010"/>
<path fill-rule="evenodd" clip-rule="evenodd" d="M23.0052 16.4075L36.1075 29.5132C36.4206 29.8264 36.4206 30.3259 36.1075 30.6392C35.7943 30.9524 35.2949 30.9524 34.9818 30.6392L21.8795 17.5335C21.5663 17.2203 21.5663 16.7208 21.8795 16.4075C22.1842 16.0943 22.692 16.0943 23.0052 16.4075Z" fill="#FF0000"/>
<path fill-rule="evenodd" clip-rule="evenodd" d="M30.4874 30.3006C30.4874 30.3006 30.4874 31.4266 30.4874 31.7991C30.4874 35.8205 27.2287 39.0716 23.2168 39.0716C19.1964 39.0716 15.9462 35.8121 15.9462 31.7991C15.9462 29.4793 15.9462 23.1297 15.9462 23.1297C15.9462 22.6894 15.5907 22.3339 15.1506 22.3339C14.7104 22.3339 14.355 22.6894 14.355 23.1297V31.6975C14.355 31.706 14.355 31.7144 14.355 31.7144C14.355 31.7398 14.355 31.7652 14.355 31.7906C14.355 36.6926 18.3246 40.6632 23.2252 40.6632C28.1259 40.6632 32.0955 36.6926 32.0955 31.7906C32.0955 31.435 32.0955 30.2921 32.0955 30.2921L30.5043 28.7005V30.3006H30.4874ZM45.7395 39.3425L40.5765 34.1781C40.6018 34.1358 40.6188 34.085 40.6357 34.0426C43.5642 33.704 45.8326 31.2234 45.8326 28.2094C45.8326 24.9923 43.2511 22.3847 40.0517 22.3339V22.3593C39.984 22.3423 39.9247 22.3339 39.8485 22.3339H31.4861L33.0773 23.9255H39.8485C39.9163 23.9255 39.984 23.917 40.0517 23.9001V23.934C42.3708 23.9848 44.2329 25.8812 44.2329 28.2179C44.2329 30.5546 42.3708 32.4425 40.0517 32.5018V32.5102C40.0517 32.5102 39.4677 32.4933 39.5015 32.4933C38.8413 32.4933 38.3081 33.0267 38.3081 33.6871C38.3081 34.1104 38.5282 34.4829 38.8583 34.6945V34.703H38.8244L44.6053 40.4854C44.9185 40.7987 45.4179 40.7987 45.731 40.4854C46.0527 40.1552 46.0527 39.6557 45.7395 39.3425Z" fill="white"/>
</svg>
