<svg width="42" height="42" viewBox="0 0 42 42" fill="none" xmlns="http://www.w3.org/2000/svg">
<path fill-rule="evenodd" clip-rule="evenodd" d="M21 0C25.1534 0 29.2136 1.23155 32.667 3.53906C36.1204 5.84657 38.812 9.12638 40.4015 12.9636C41.9909 16.8009 42.4068 21.0233 41.5965 25.0969C40.7862 29.1705 38.7861 32.9122 35.8492 35.8491C32.9123 38.786 29.1705 40.7861 25.0969 41.5964C21.0233 42.4067 16.8009 41.9908 12.9636 40.4014C9.12638 38.8119 5.84663 36.1204 3.53912 32.667C1.23161 29.2136 0 25.1534 0 21C0 15.4305 2.21249 10.0891 6.15076 6.15088C10.089 2.21262 15.4305 0 21 0ZM25.5 15.1299H22.644C22.4195 15.188 22.2237 15.3252 22.0925 15.5164C21.9613 15.7075 21.9035 15.9396 21.93 16.1699V18.23H25.5V21.1699H21.93V30H18.559V21.1699H15.5V18.23H18.555V16.5C18.5202 15.9346 18.599 15.368 18.7867 14.8335C18.9745 14.299 19.2674 13.8076 19.6481 13.3882C20.0289 12.9688 20.4897 12.6298 21.0036 12.3914C21.5175 12.1529 22.0739 12.0199 22.64 12H25.5V15.1299Z" fill="#999999"/>
</svg>
