<svg width="42" height="42" viewBox="0 0 42 42" fill="none" xmlns="http://www.w3.org/2000/svg">
<path fill-rule="evenodd" clip-rule="evenodd" d="M21 -6.10352e-05C25.1534 -6.10352e-05 29.2136 1.23149 32.667 3.539C36.1204 5.84651 38.812 9.12631 40.4015 12.9636C41.9909 16.8008 42.4068 21.0233 41.5965 25.0969C40.7862 29.1705 38.7861 32.9122 35.8492 35.8491C32.9123 38.786 29.1705 40.7861 25.0969 41.5964C21.0233 42.4067 16.8009 41.9907 12.9636 40.4013C9.12638 38.8119 5.84663 36.1204 3.53912 32.6669C1.23161 29.2135 0 25.1533 0 20.9999C0 15.4304 2.21249 10.0891 6.15076 6.15082C10.089 2.21255 15.4305 -6.10352e-05 21 -6.10352e-05ZM16.629 29.9999V19.1999H13.2V29.9999H16.631H16.629ZM14.914 17.7299C15.419 17.7269 15.9023 17.5237 16.2578 17.165C16.6132 16.8063 16.812 16.3214 16.8105 15.8163C16.809 15.3113 16.6073 14.8275 16.2496 14.4709C15.892 14.1143 15.4076 13.914 14.9025 13.914C14.3975 13.914 13.913 14.1143 13.5554 14.4709C13.1977 14.8275 12.996 15.3113 12.9945 15.8163C12.993 16.3214 13.1917 16.8063 13.5472 17.165C13.9027 17.5237 14.386 17.7269 14.891 17.7299H14.914ZM18.527 29.9999H21.958V23.9699C21.9452 23.6756 21.9834 23.3813 22.071 23.1C22.1897 22.7238 22.4234 22.3939 22.739 22.1572C23.0547 21.9204 23.4365 21.7886 23.831 21.78C25.073 21.78 25.569 22.7699 25.569 24.2199V29.9999H29V23.81C29 20.49 27.307 18.9499 25.05 18.9499C24.4123 18.9305 23.782 19.0909 23.2312 19.4128C22.6804 19.7346 22.2312 20.2049 21.935 20.77H21.958V19.1999H18.527C18.573 20.2199 18.527 29.9999 18.527 29.9999Z" fill="#999999"/>
</svg>
