<svg width="42" height="42" viewBox="0 0 42 42" fill="none" xmlns="http://www.w3.org/2000/svg">
<path fill-rule="evenodd" clip-rule="evenodd" d="M21 -0.00012207C25.1534 -0.00012207 29.2136 1.23143 32.667 3.53894C36.1204 5.84645 38.812 9.12625 40.4015 12.9635C41.9909 16.8007 42.4068 21.0232 41.5965 25.0968C40.7862 29.1704 38.7861 32.9121 35.8492 35.849C32.9123 38.7859 29.1705 40.786 25.0969 41.5963C21.0233 42.4066 16.8009 41.9907 12.9636 40.4012C9.12638 38.8118 5.84663 36.1203 3.53912 32.6669C1.23161 29.2134 0 25.1533 0 20.9999C0 15.4303 2.21249 10.089 6.15076 6.15076C10.089 2.21249 15.4305 -0.00012207 21 -0.00012207ZM31.012 14.8998C30.2609 15.2265 29.4662 15.4422 28.653 15.5399C29.5087 15.0389 30.1514 14.2422 30.46 13.2999C29.6529 13.7743 28.7699 14.1058 27.85 14.2799C27.4614 13.8768 26.9954 13.5565 26.4798 13.3383C25.9642 13.12 25.4098 13.0083 24.85 13.0099C23.771 13.0006 22.7324 13.4196 21.9621 14.1752C21.1918 14.9307 20.7526 15.961 20.741 17.0399C20.7403 17.3497 20.7762 17.6585 20.848 17.9598C19.2213 17.886 17.6278 17.4736 16.1697 16.7487C14.7115 16.0237 13.4208 15.0023 12.38 13.7499C11.8547 14.637 11.6938 15.6931 11.931 16.6964C12.1682 17.6997 12.7851 18.5718 13.652 19.1298C13.0008 19.1109 12.363 18.9397 11.79 18.6298V18.6798C11.7989 19.6184 12.1317 20.5252 12.7321 21.2467C13.3325 21.9683 14.1637 22.4603 15.085 22.6398C14.7322 22.7325 14.3689 22.7797 14.004 22.7799C13.7449 22.7771 13.4864 22.7537 13.231 22.7098C13.5027 23.5159 14.0176 24.2179 14.7047 24.7194C15.3918 25.2208 16.2175 25.497 17.068 25.5099C15.6047 26.6309 13.8113 27.2357 11.968 27.2299C11.637 27.2299 11.311 27.2098 10.988 27.1798C12.8754 28.3648 15.0594 28.9923 17.288 28.9899C18.8124 29.0149 20.3265 28.7367 21.7423 28.1713C23.1581 27.6058 24.4473 26.7644 25.535 25.6962C26.6227 24.6279 27.4872 23.354 28.0781 21.9486C28.669 20.5432 28.9745 19.0344 28.977 17.5099C28.977 17.3399 28.977 17.1599 28.964 16.9899C29.7656 16.4207 30.4592 15.7128 31.012 14.8998Z" fill="#999999"/>
</svg>
