<svg width="42" height="42" viewBox="0 0 42 42" fill="none" xmlns="http://www.w3.org/2000/svg">
<path fill-rule="evenodd" clip-rule="evenodd" d="M32.667 3.53888C29.2136 1.23137 25.1534 -0.000183105 21 -0.000183105C15.4305 -0.000183105 10.089 2.21243 6.15076 6.1507C2.21249 10.089 0 15.4303 0 20.9998C0 25.1532 1.23161 29.2134 3.53912 32.6668C5.84663 36.1202 9.12638 38.8117 12.9636 40.4012C16.8009 41.9906 21.0233 42.4065 25.0969 41.5963C29.1705 40.786 32.9123 38.7858 35.8492 35.8489C38.7861 32.912 40.7862 29.1703 41.5965 25.0967C42.4068 21.0231 41.9909 16.8007 40.4015 12.9634C38.812 9.12619 36.1204 5.84639 32.667 3.53888ZM11.1896 14.1455C11.9513 13.4121 12.9844 13 14.0615 13H27.9385C29.0156 13 30.0487 13.4121 30.8104 14.1455C31.5721 14.879 32 15.8738 32 16.9111V25.0889C32 26.1262 31.5721 27.121 30.8104 27.8545C30.0487 28.5879 29.0156 29 27.9385 29H14.0615C12.9844 29 11.9513 28.5879 11.1896 27.8545C10.4279 27.121 10 26.1262 10 25.0889V16.9111C10 15.8738 10.4279 14.879 11.1896 14.1455ZM18.5003 24.712L25.7003 21.1564V21.16C25.7305 21.1451 25.7559 21.1224 25.7736 21.0945C25.7914 21.0666 25.8007 21.0345 25.8007 21.0018C25.8007 20.9691 25.7914 20.937 25.7736 20.9091C25.7559 20.8811 25.7305 20.8585 25.7003 20.8436L18.5003 17.288C18.4723 17.274 18.441 17.2672 18.4094 17.2682C18.3779 17.2691 18.3471 17.2779 18.3201 17.2936C18.293 17.3093 18.2706 17.3314 18.255 17.3578C18.2394 17.3842 18.231 17.414 18.2308 17.4444V24.5556C18.231 24.586 18.2394 24.6158 18.255 24.6422C18.2706 24.6686 18.293 24.6907 18.3201 24.7064C18.3471 24.7221 18.3779 24.7309 18.4094 24.7318C18.441 24.7328 18.4723 24.726 18.5003 24.712Z" fill="#999999"/>
</svg>
